<svg width="120" height="40" viewBox="0 0 512 512" fill="none" xmlns="http://www.w3.org/2000/svg">
  <path d="M472.902 133.389C458.711 127.563 443.876 123.381 428.751 121.01C413.337 118.639 397.633 118.059 382.219 119.22C366.805 120.381 351.681 123.381 337.2 128.144C322.719 132.907 309.111 139.313 296.757 147.362C284.403 155.41 273.403 164.909 264.067 175.568C254.731 186.227 247.161 197.757 241.625 209.866C236.089 221.975 232.487 234.374 230.987 246.773C229.487 259.172 230.118 271.281 232.777 282.81C235.437 294.339 240.125 305.288 246.51 315.367C252.895 325.446 260.755 334.365 269.801 341.834C278.847 349.303 288.763 355.129 299.126 359.022C309.489 362.915 320.199 364.946 330.909 364.946C341.619 364.946 352.039 362.915 361.823 359.022C371.607 355.129 380.523 349.303 388.411 341.834C396.299 334.365 403.001 325.446 408.228 315.367C413.454 305.288 417.142 294.339 418.801 282.81C420.461 271.281 419.671 259.172 416.433 246.773C413.195 234.374 407.67 221.975 400.072 209.866C392.474 197.757 383.138 186.227 372.381 175.568C361.623 164.909 349.707 155.41 337.2 147.362" stroke="currentColor" strokeWidth="24" strokeLinecap="round"/>
  <path d="M39.0977 133.389C53.2887 127.563 68.1237 123.381 83.2487 121.01C98.6627 118.639 114.367 118.059 129.781 119.22C145.195 120.381 160.319 123.381 174.8 128.144C189.281 132.907 202.889 139.313 215.243 147.362C227.597 155.41 238.597 164.909 247.933 175.568C257.269 186.227 264.839 197.757 270.375 209.866C275.911 221.975 279.513 234.374 281.013 246.773C282.513 259.172 281.882 271.281 279.223 282.81C276.563 294.339 271.875 305.288 265.49 315.367C259.105 325.446 251.245 334.365 242.199 341.834C233.153 349.303 223.237 355.129 212.874 359.022C202.511 362.915 191.801 364.946 181.091 364.946C170.381 364.946 159.961 362.915 150.177 359.022C140.393 355.129 131.477 349.303 123.589 341.834C115.701 334.365 108.999 325.446 103.772 315.367C98.5457 305.288 94.8577 294.339 93.1987 282.81C91.5387 271.281 92.3287 259.172 95.5667 246.773C98.8047 234.374 104.33 221.975 111.928 209.866C119.526 197.757 128.862 186.227 139.619 175.568C150.377 164.909 162.293 155.41 174.8 147.362" stroke="currentColor" strokeWidth="24" strokeLinecap="round"/>
</svg> 