<svg width="120" height="40" viewBox="0 0 512 512" fill="none" xmlns="http://www.w3.org/2000/svg">
  <path d="M478.766 161.934C475.038 161.934 471.766 163.298 469.406 165.658C467.046 168.018 465.682 171.29 465.682 175.018V337.018C465.682 340.746 467.046 344.018 469.406 346.378C471.766 348.738 475.038 350.102 478.766 350.102H496.766C500.494 350.102 503.766 348.738 506.126 346.378C508.486 344.018 509.85 340.746 509.85 337.018V175.018C509.85 171.29 508.486 168.018 506.126 165.658C503.766 163.298 500.494 161.934 496.766 161.934H478.766Z" fill="currentColor"/>
  <path d="M404.766 161.934C401.038 161.934 397.766 163.298 395.406 165.658C393.046 168.018 391.682 171.29 391.682 175.018V337.018C391.682 340.746 393.046 344.018 395.406 346.378C397.766 348.738 401.038 350.102 404.766 350.102H422.766C426.494 350.102 429.766 348.738 432.126 346.378C434.486 344.018 435.85 340.746 435.85 337.018V175.018C435.85 171.29 434.486 168.018 432.126 165.658C429.766 163.298 426.494 161.934 422.766 161.934H404.766Z" fill="currentColor"/>
  <path d="M330.766 161.934C327.038 161.934 323.766 163.298 321.406 165.658C319.046 168.018 317.682 171.29 317.682 175.018V337.018C317.682 340.746 319.046 344.018 321.406 346.378C323.766 348.738 327.038 350.102 330.766 350.102H348.766C352.494 350.102 355.766 348.738 358.126 346.378C360.486 344.018 361.85 340.746 361.85 337.018V175.018C361.85 171.29 360.486 168.018 358.126 165.658C355.766 163.298 352.494 161.934 348.766 161.934H330.766Z" fill="currentColor"/>
  <path d="M256.766 161.934C253.038 161.934 249.766 163.298 247.406 165.658C245.046 168.018 243.682 171.29 243.682 175.018V337.018C243.682 340.746 245.046 344.018 247.406 346.378C249.766 348.738 253.038 350.102 256.766 350.102H274.766C278.494 350.102 281.766 348.738 284.126 346.378C286.486 344.018 287.85 340.746 287.85 337.018V175.018C287.85 171.29 286.486 168.018 284.126 165.658C281.766 163.298 278.494 161.934 274.766 161.934H256.766Z" fill="currentColor"/>
  <path d="M182.766 161.934C179.038 161.934 175.766 163.298 173.406 165.658C171.046 168.018 169.682 171.29 169.682 175.018V337.018C169.682 340.746 171.046 344.018 173.406 346.378C175.766 348.738 179.038 350.102 182.766 350.102H200.766C204.494 350.102 207.766 348.738 210.126 346.378C212.486 344.018 213.85 340.746 213.85 337.018V175.018C213.85 171.29 212.486 168.018 210.126 165.658C207.766 163.298 204.494 161.934 200.766 161.934H182.766Z" fill="currentColor"/>
  <path d="M108.766 161.934C105.038 161.934 101.766 163.298 99.4062 165.658C97.0462 168.018 95.6822 171.29 95.6822 175.018V337.018C95.6822 340.746 97.0462 344.018 99.4062 346.378C101.766 348.738 105.038 350.102 108.766 350.102H126.766C130.494 350.102 133.766 348.738 136.126 346.378C138.486 344.018 139.85 340.746 139.85 337.018V175.018C139.85 171.29 138.486 168.018 136.126 165.658C133.766 163.298 130.494 161.934 126.766 161.934H108.766Z" fill="currentColor"/>
  <path d="M34.7662 161.934C31.0382 161.934 27.7662 163.298 25.4062 165.658C23.0462 168.018 21.6822 171.29 21.6822 175.018V337.018C21.6822 340.746 23.0462 344.018 25.4062 346.378C27.7662 348.738 31.0382 350.102 34.7662 350.102H52.7662C56.4942 350.102 59.7662 348.738 62.1262 346.378C64.4862 344.018 65.8502 340.746 65.8502 337.018V175.018C65.8502 171.29 64.4862 168.018 62.1262 165.658C59.7662 163.298 56.4942 161.934 52.7662 161.934H34.7662Z" fill="currentColor"/>
</svg> 