<svg width="120" height="40" viewBox="0 0 1524 372" fill="none" xmlns="http://www.w3.org/2000/svg">
  <path d="M296.311 147.386C304.547 123.473 303.303 97.1886 292.85 74.0485C277.363 39.9276 243.163 17.1169 206.284 17.1169C189.659 17.1169 173.664 21.7084 159.734 30.3735C141.312 11.8664 116.702 0.75 90.2333 0.75C43.8476 0.75 6.34885 38.2487 6.34885 84.6344C6.34885 89.6438 6.72725 94.6532 7.48404 99.4731C2.85379 107.331 0 116.624 0 126.296C0 151.22 16.6133 172.682 39.0661 180.54C30.8297 204.453 32.0741 230.737 42.5269 253.877C58.0139 287.998 92.2139 310.809 129.093 310.809C145.718 310.809 161.713 306.217 175.643 297.552C194.065 316.059 218.675 327.176 245.144 327.176C291.529 327.176 329.028 289.677 329.028 243.291C329.028 238.282 328.65 233.273 327.893 228.453C332.713 220.595 335.377 211.302 335.377 201.63C335.377 176.706 318.764 155.244 296.311 147.386ZM245.144 310.809C223.069 310.809 202.79 302.183 188.482 287.497C193.112 284.454 197.553 280.934 201.616 276.871C218.986 259.501 227.132 235.71 225.132 211.919C243.554 211.541 260.801 203.305 272.688 189.375C284.574 175.445 289.544 157.023 286.879 138.979C303.871 146.837 315.758 163.829 315.758 183.205C315.758 189.753 314.324 196.112 311.281 201.819C312.227 205.241 312.605 208.852 312.605 212.464C312.605 248.828 282.574 278.859 246.21 278.859C243.167 278.859 240.124 278.67 237.081 278.292C238.326 279.537 239.76 280.593 241.194 281.649C245.144 289.677 245.144 299.348 241.194 307.387C242.439 307.766 243.872 310.809 245.144 310.809ZM22.7717 126.296C22.7717 120.808 24.0161 115.509 26.3024 110.589C24.5837 102.55 23.7175 94.3221 23.7175 85.9057C23.7175 111.967 35.9824 135.18 55.1608 150.353C52.4963 150.731 49.8319 150.92 47.1674 150.92C33.6088 150.92 22.7717 140.083 22.7717 126.296ZM90.2333 17.1169C112.308 17.1169 132.587 25.7426 146.895 40.4282C142.265 43.4714 137.824 46.9915 133.761 51.0543C116.391 68.4241 108.245 92.2153 110.245 116.007C91.8233 116.385 74.5758 124.621 62.6894 138.551C50.8031 152.481 45.8331 170.903 48.4975 188.947C31.5056 181.089 19.6192 164.097 19.6192 144.721C19.6192 138.173 21.0531 131.814 24.0961 126.107C23.1505 122.685 22.7717 119.074 22.7717 115.462C22.7717 79.0981 52.8027 49.0675 89.1672 49.0675C92.21 49.0675 95.2527 49.2569 98.2955 49.6353C97.051 48.3904 95.6171 47.3343 94.1832 46.2783C90.2333 38.2487 90.2333 28.5775 94.1832 20.5385C92.9388 20.1601 91.5049 17.1169 90.2333 17.1169ZM175.265 280.177C158.868 292.89 138.212 299.348 116.891 299.348C83.6896 299.348 53.8483 279.404 40.8791 249.184C39.6347 246.141 38.579 243.098 37.7127 239.866C37.1446 237.769 36.5764 235.71 36.1977 233.651C35.2521 228.831 34.6839 223.821 34.6839 218.812C34.6839 194.266 46.0043 171.809 63.9431 156.825C66.0399 159.679 68.5157 162.344 71.1802 164.82C69.0834 170.146 67.8389 175.824 67.8389 181.691C67.8389 183.939 68.0283 186.188 68.4071 188.436C54.2271 200.007 45.8331 216.999 45.8331 235.71C45.8331 264.357 69.0834 287.607 97.7306 287.607C111.283 287.607 123.737 282.425 133.004 273.348C135.479 275.028 138.212 276.493 141.066 277.738C152.196 282.803 164.65 284.427 176.888 282.803C176.321 281.838 175.832 280.934 175.265 280.177ZM183.691 269.925C179.817 272.589 176.132 274.875 172.258 276.871C160.491 268.454 152.575 255.368 150.289 240.811C148.57 230.17 149.705 219.34 153.579 209.481C157.452 199.623 163.89 191.017 172.258 184.45C176.132 181.786 180.384 179.5 184.825 177.504C196.592 185.921 204.508 199.007 206.794 213.564C208.513 224.205 207.378 235.035 203.504 244.894C199.631 254.752 193.193 263.358 184.825 269.925H183.691ZM190.885 165.387C187.011 165.387 183.138 165.954 179.264 167.087C156.449 173.654 142.2 196.469 148.57 219.151C152.575 233.708 163.323 245.083 176.888 250.19C173.014 250.19 169.141 249.624 165.267 248.491C142.452 241.924 128.203 219.151 134.573 196.469C138.578 181.912 149.326 170.537 162.891 165.387C159.017 165.387 155.144 165.954 151.27 167.087C128.455 173.654 114.206 196.469 120.576 219.151C124.581 233.708 135.329 245.083 148.894 250.19C145.02 250.19 141.147 249.624 137.273 248.491C114.458 241.924 100.209 219.151 106.579 196.469C113.719 168.787 142.452 153.663 170.275 160.803C177.415 162.503 183.853 165.387 190.885 165.387Z" fill="currentColor"/>
  <path d="M486.826 172.493C486.826 151.409 474.561 139.144 448.595 139.144C431.981 139.144 419.716 144.492 411.29 154.919L400.485 144.87C411.29 131.85 427.904 124.557 449.744 124.557C484.906 124.557 503.44 142.336 503.44 171.722V240.899H488.353V225.557C479.171 237.444 463.312 243.925 446.698 243.925C421.488 243.925 404.874 230.149 404.874 208.309C404.874 186.469 421.488 173.071 446.698 173.071H486.826V172.493ZM486.826 186.469H447.276C431.025 186.469 421.11 194.895 421.11 208.309C421.11 221.724 431.025 230.149 447.276 230.149C468.36 230.149 486.826 217.884 486.826 197.557V186.469Z" fill="currentColor"/>
  <path d="M597.721 126.713L595.565 143.327C593.409 142.749 589.866 142.171 586.323 142.171C565.239 142.171 553.167 154.919 553.167 181.121V240.899H536.553V126.713H552.589V146.648C558.901 132.85 572.532 125.942 589.866 125.942C592.637 125.942 595.565 126.134 597.721 126.713Z" fill="currentColor"/>
  <path d="M673.646 124.557C705.073 124.557 729.505 148.989 729.505 184.279C729.505 219.569 705.073 244 673.646 244C654.919 244 638.498 235.575 629.893 222.302V297.912H613.279V126.713H629.315V147.797C637.92 133.428 654.341 124.557 673.646 124.557ZM672.305 229.413C695.988 229.413 712.602 210.879 712.602 184.279C712.602 157.679 695.988 139.144 672.305 139.144C648.622 139.144 632.008 157.679 632.008 184.279C632.008 210.879 648.622 229.413 672.305 229.413Z" fill="currentColor"/>
  <path d="M805.43 244C773.425 244 748.993 219.569 748.993 184.279C748.993 148.989 773.425 124.557 805.43 124.557C837.435 124.557 861.867 148.989 861.867 184.279C861.867 219.569 837.435 244 805.43 244ZM805.43 229.413C829.113 229.413 844.958 210.879 844.958 184.279C844.958 157.679 829.113 139.144 805.43 139.144C781.747 139.144 765.902 157.679 765.902 184.279C765.902 210.879 781.747 229.413 805.43 229.413Z" fill="currentColor"/>
  <path d="M1010.91 126.713L957.972 297.912H940.78L958.55 248.695L914.814 126.713H933.348L968.638 228.835L1003.93 126.713H1010.91Z" fill="currentColor"/>
  <path d="M1117.47 172.493C1117.47 151.409 1105.21 139.144 1079.24 139.144C1062.63 139.144 1050.36 144.492 1041.94 154.919L1031.13 144.87C1041.94 131.85 1058.55 124.557 1080.39 124.557C1115.55 124.557 1134.09 142.336 1134.09 171.722V240.899H1119V225.557C1109.82 237.444 1093.96 243.925 1077.34 243.925C1052.13 243.925 1035.52 230.149 1035.52 208.309C1035.52 186.469 1052.13 173.071 1077.34 173.071H1117.47V172.493ZM1117.47 186.469H1077.92C1061.67 186.469 1051.75 194.895 1051.75 208.309C1051.75 221.724 1061.67 230.149 1077.92 230.149C1099 230.149 1117.47 217.884 1117.47 197.557V186.469Z" fill="currentColor"/>
  <path d="M1275.97 126.713L1223.03 297.912H1205.84L1223.61 248.695L1179.87 126.713H1198.41L1233.7 228.835L1268.99 126.713H1275.97Z" fill="currentColor"/>
  <path d="M1382.53 172.493C1382.53 151.409 1370.27 139.144 1344.3 139.144C1327.69 139.144 1315.42 144.492 1307 154.919L1296.19 144.87C1307 131.85 1323.61 124.557 1345.45 124.557C1380.61 124.557 1399.15 142.336 1399.15 171.722V240.899H1384.06V225.557C1374.88 237.444 1359.02 243.925 1342.4 243.925C1317.19 243.925 1300.58 230.149 1300.58 208.309C1300.58 186.469 1317.19 173.071 1342.4 173.071H1382.53V172.493ZM1382.53 186.469H1342.98C1326.73 186.469 1316.81 194.895 1316.81 208.309C1316.81 221.724 1326.73 230.149 1342.98 230.149C1364.06 230.149 1382.53 217.884 1382.53 197.557V186.469Z" fill="currentColor"/>
  <path d="M1493.39 126.713L1491.23 143.327C1489.08 142.749 1485.53 142.171 1481.99 142.171C1460.91 142.171 1448.84 154.919 1448.84 181.121V240.899H1432.22V126.713H1448.26V146.648C1454.57 132.85 1468.2 125.942 1485.53 125.942C1488.31 125.942 1491.23 126.134 1493.39 126.713Z" fill="currentColor"/>
</svg> 