<svg width="120" height="40" viewBox="0 0 512 64" fill="none" xmlns="http://www.w3.org/2000/svg">
  <path d="M482.041 0.729492L463.681 42.8975H457.761L439.401 0.729492H446.281L461.721 37.0575L477.241 0.729492H482.041ZM428.761 6.96949V42.8975H422.561V6.96949H407.681V0.729492H443.641V6.96949H428.761ZM392.041 42.8975H385.841V0.729492H392.041V42.8975ZM365.041 7.32949H343.921V18.2495H363.281V24.4895H343.921V36.2975H365.041V42.8975H337.721V0.729492H365.041V7.32949ZM314.281 42.8975H308.081V7.32949H293.921V0.729492H328.441V7.32949H314.281V42.8975ZM267.041 43.6175C261.601 43.6175 256.881 42.4575 252.881 40.1375C248.921 37.8175 245.841 34.5775 243.641 30.4175C241.441 26.2175 240.341 21.4575 240.341 16.1375C240.341 10.8175 241.441 6.09749 243.641 1.97749C245.841 -2.14251 248.921 -5.38251 252.881 -7.74251C256.881 -10.1025 261.601 -11.2825 267.041 -11.2825C272.481 -11.2825 277.201 -10.1025 281.201 -7.74251C285.201 -5.38251 288.281 -2.14251 290.441 1.97749C292.641 6.09749 293.741 10.8175 293.741 16.1375C293.741 21.4575 292.641 26.2175 290.441 30.4175C288.281 34.5775 285.201 37.8175 281.201 40.1375C277.201 42.4575 272.481 43.6175 267.041 43.6175ZM267.041 36.9775C271.041 36.9775 274.481 36.1375 277.361 34.4575C280.281 32.7375 282.521 30.2975 284.081 27.1375C285.681 23.9775 286.481 20.3375 286.481 16.1375C286.481 11.9375 285.681 8.29749 284.081 5.13749C282.521 1.97749 280.281 -0.462512 277.361 -2.18251C274.481 -3.90251 271.041 -4.76251 267.041 -4.76251C263.041 -4.76251 259.601 -3.90251 256.681 -2.18251C253.801 -0.462512 251.561 1.97749 249.961 5.13749C248.401 8.29749 247.601 11.9375 247.601 16.1375C247.601 20.3375 248.401 23.9775 249.961 27.1375C251.561 30.2975 253.801 32.7375 256.681 34.4575C259.601 36.1375 263.041 36.9775 267.041 36.9775ZM221.041 42.8975H214.841V0.729492H221.041V42.8975ZM194.041 7.32949H172.921V18.2495H192.281V24.4895H172.921V36.2975H194.041V42.8975H166.721V0.729492H194.041V7.32949ZM143.281 42.8975H137.081V7.32949H122.921V0.729492H157.441V7.32949H143.281V42.8975ZM96.0409 43.6175C90.6009 43.6175 85.8809 42.4575 81.8809 40.1375C77.9209 37.8175 74.8409 34.5775 72.6409 30.4175C70.4409 26.2175 69.3409 21.4575 69.3409 16.1375C69.3409 10.8175 70.4409 6.09749 72.6409 1.97749C74.8409 -2.14251 77.9209 -5.38251 81.8809 -7.74251C85.8809 -10.1025 90.6009 -11.2825 96.0409 -11.2825C101.481 -11.2825 106.201 -10.1025 110.201 -7.74251C114.201 -5.38251 117.281 -2.14251 119.441 1.97749C121.641 6.09749 122.741 10.8175 122.741 16.1375C122.741 21.4575 121.641 26.2175 119.441 30.4175C117.281 34.5775 114.201 37.8175 110.201 40.1375C106.201 42.4575 101.481 43.6175 96.0409 43.6175ZM96.0409 36.9775C100.041 36.9775 103.481 36.1375 106.361 34.4575C109.281 32.7375 111.521 30.2975 113.081 27.1375C114.681 23.9775 115.481 20.3375 115.481 16.1375C115.481 11.9375 114.681 8.29749 113.081 5.13749C111.521 1.97749 109.281 -0.462512 106.361 -2.18251C103.481 -3.90251 100.041 -4.76251 96.0409 -4.76251C92.0409 -4.76251 88.6009 -3.90251 85.6809 -2.18251C82.8009 -0.462512 80.5609 1.97749 78.9609 5.13749C77.4009 8.29749 76.6009 11.9375 76.6009 16.1375C76.6009 20.3375 77.4009 23.9775 78.9609 27.1375C80.5609 30.2975 82.8009 32.7375 85.6809 34.4575C88.6009 36.1375 92.0409 36.9775 96.0409 36.9775ZM50.0409 42.8975H43.8409V0.729492H50.0409V42.8975ZM23.0409 7.32949H1.92087V18.2495H21.2809V24.4895H1.92087V36.2975H23.0409V42.8975H-4.27913V0.729492H23.0409V7.32949Z" fill="currentColor"/>
</svg> 